<svg width="48" height="48" viewBox="0 0 48 48" fill="none" xmlns="http://www.w3.org/2000/svg">
<g clip-path="url(#clip0_650_339)">
<path d="M48 24C48 10.7294 37.2706 0 24 0C10.7294 0 0 10.7294 0 24C0 37.2706 10.7294 48 24 48C37.2706 48 48 37.2706 48 24ZM45.9671 24C45.9671 36.1412 36.1412 45.9671 24 45.9671C11.8588 45.9671 2.08941 36.1412 2.08941 24C2.08941 11.8588 11.9153 2.03294 24.0565 2.03294C36.1412 2.08941 45.9671 11.9153 45.9671 24Z" fill="black"/>
<path d="M9.54346 12.0282H31.8493C37.5529 12.0282 39.0776 14.7953 39.0776 19.087V20.6117C39.0776 23.7741 38.3435 25.6941 34.9552 26.4847V26.5411C37.1576 26.9364 38.9646 27.8964 38.9646 31.7929V35.8588H31.567V32.9788C31.567 30.4941 30.8329 29.647 28.5176 29.647H16.9411V35.8023H9.54346V12.0282ZM16.9411 23.7176H29.1387C31.1152 23.7176 31.8493 22.927 31.8493 21.2329V20.4423C31.8493 18.3529 30.7764 17.9576 28.4611 17.9576H16.9411V23.7176Z" fill="black"/>
</g>
<defs>
<clipPath id="clip0_650_339">
<rect width="48" height="48" fill="white"/>
</clipPath>
</defs>
</svg>
