<svg width="1200" height="152" viewBox="0 0 1240 152" fill="none" xmlns="http://www.w3.org/2000/svg">
<path d="M46.0296 38.6162V74.7676H122.124C134.564 74.7676 139.125 69.8378 139.125 59.1568V54.227C139.125 41.0811 132.491 38.6162 117.977 38.6162H46.0296ZM0 150.357V1.64325H138.918C174.373 1.64325 183.911 19.1027 183.911 45.8054V55.2541C183.911 75.1784 179.35 86.8865 158.201 91.8162V92.227C171.885 94.6919 183.289 100.649 183.289 125.092V150.357H137.259V132.486C137.259 116.876 132.698 111.741 118.391 111.741H46.0296V150.357H0Z" fill="white"/>
<path d="M211.717 98.1838V53.8162C211.717 10.2703 236.391 0 277.859 0H351.672C393.14 0 417.814 10.2703 417.814 53.8162V98.1838C417.814 141.73 393.14 152 351.672 152H277.859C236.391 152 211.717 141.73 211.717 98.1838ZM258.991 67.9892V84.0108C258.991 105.578 263.552 113.795 285.323 113.795H344.208C365.979 113.795 370.54 105.578 370.54 84.0108V67.9892C370.54 49.5027 365.979 38.2054 341.72 38.2054H287.811C263.552 38.2054 258.991 49.5027 258.991 67.9892Z" fill="white"/>
<path d="M442.343 98.1838V53.8162C442.343 10.2703 467.017 0 508.485 0H562.601C628.12 0 636.621 13.9676 636.206 56.0757H590.177V51.9676C590.177 41.2865 582.298 38.2054 568.614 38.2054H518.437C494.178 38.2054 489.617 49.5027 489.617 67.9892V84.0108C489.617 105.578 494.178 113.795 515.949 113.795H565.089C585.823 113.795 592.043 111.741 592.043 93.2541H638.073V107.222C638.073 132.281 628.95 152 582.713 152H508.485C467.017 152 442.343 141.73 442.343 98.1838Z" fill="white"/>
<path d="M665.757 150.357V1.64325H711.787V56.2811H733.35L791.406 1.64325H854.023L772.745 74.3568L863.56 150.357H798.455L732.106 93.2541H711.787V150.357H665.757Z" fill="white"/>
<path d="M880.792 150.357V1.64325H1045.01V36.1514H926.822V59.9784H1038.79V90.7892H926.822V114.616H1047.7V150.357H880.792Z" fill="white"/>
<path d="M1064.59 38.6162V1.64325H1240V38.6162H1175.31V150.357H1129.28V38.6162H1064.59Z" fill="white"/>
</svg>
